# xmcd
#
# Track frame offsets: 
#        150
#        17235
#        29600
#        46437
#        72335
#        89225
#        109485
#        138507
#        156962
#        170492
#
# Disc length: 2627 seconds
#
# Revision: 2
# Processed by: cddbd v1.5.1PL2 Copyright (c) Steve Scherf et al.
# Submitted via: ExactAudioCopy v0.95a5
#
DISCID=960a410a
DTITLE=GUITAR PETE - Burning Bridges
DYEAR=1999
DGENRE=Blues-Rock
TTITLE0=Turning Off
TTITLE1=Jellyfish
TTITLE2=Mustang Sally
TTITLE3=Do you hear the rain
TTITLE4=J. B. Shuffle
TTITLE5=Drifting
TTITLE6=Makes No Sense
TTITLE7=Chillin'
TTITLE8=Rainmaker
TTITLE9=Gasoline
EXTD=1998
EXTT0=
EXTT1=
EXTT2=
EXTT3=
EXTT4=
EXTT5=
EXTT6=
EXTT7=
EXTT8=
EXTT9=
PLAYORDER=
